<?xml version="1.0" standalone="no"?>
<!DOCTYPE svg PUBLIC "-//W3C//DTD SVG 20010904//EN"
 "http://www.w3.org/TR/2001/REC-SVG-20010904/DTD/svg10.dtd">
<svg version="1.0" xmlns="http://www.w3.org/2000/svg"
 width="160.000000pt" height="160.000000pt" viewBox="0 0 160.000000 160.000000"
 preserveAspectRatio="xMidYMid meet">
<metadata>
Created by potrace 1.14, written by Peter Selinger 2001-2017
</metadata>
<g transform="translate(0.000000,160.000000) scale(0.100000,-0.100000)"
fill="#000000" stroke="none">
<path d="M210 1573 c0 -50 27 -142 51 -177 13 -19 41 -45 62 -58 21 -13 44
-28 51 -35 18 -16 16 -185 -2 -191 -34 -11 -98 -72 -119 -112 -13 -25 -28 -72
-34 -105 -10 -55 -8 -180 4 -231 18 -74 63 -131 128 -165 l36 -18 -1 -88 c-1
-84 -3 -88 -28 -100 -14 -7 -44 -31 -66 -54 -44 -43 -67 -99 -78 -186 l-7 -53
62 0 61 0 0 33 c0 61 30 137 54 137 3 0 6 -15 6 -33 0 -61 66 -94 113 -57 20
16 27 30 27 57 0 31 2 34 16 23 35 -30 56 -119 33 -146 -10 -12 0 -14 65 -14
69 0 77 2 72 18 -2 9 -8 37 -11 62 -14 87 -91 195 -154 215 -19 6 -21 12 -15
38 6 30 6 73 1 126 -1 18 6 29 33 43 89 50 111 92 154 288 2 8 0 22 -4 30 -4
8 -11 36 -14 62 -13 95 -68 179 -146 221 -26 14 -31 21 -25 40 9 27 9 61 2
106 -7 38 6 71 28 71 22 0 84 59 105 101 11 20 24 59 30 86 6 26 12 58 15 71
5 21 3 22 -70 22 -72 0 -75 -1 -65 -20 15 -28 1 -98 -26 -129 l-23 -26 -1 36
c0 21 -7 42 -18 52 -49 44 -122 15 -122 -49 0 -19 -3 -34 -6 -34 -24 0 -54 73
-54 131 l0 39 -60 0 c-59 0 -60 -1 -60 -27z m180 -621 c0 -39 19 -60 60 -67
51 -9 88 28 81 83 -4 28 19 9 39 -33 16 -33 20 -55 15 -78 -7 -34 -7 -71 -1
-127 4 -43 -9 -82 -35 -106 -18 -17 -19 -16 -19 15 0 18 -4 40 -10 50 -18 36
-98 33 -122 -3 -4 -6 -8 -25 -8 -43 0 -41 -20 -36 -42 10 -19 40 -24 199 -8
259 19 68 50 94 50 40z"/>
<path d="M1117 1593 c-3 -4 -4 -22 -2 -38 2 -27 -3 -33 -37 -50 -89 -43 -139
-149 -139 -295 0 -165 33 -242 129 -298 l48 -27 -1 -87 0 -86 -50 -34 c-84
-56 -118 -127 -129 -275 -3 -42 14 -161 29 -198 17 -41 57 -83 100 -106 25
-13 46 -30 46 -36 1 -7 2 -23 3 -35 1 -21 6 -23 77 -26 l76 -3 -2 40 c-1 36 2
41 26 50 64 22 131 125 143 216 2 17 7 38 11 48 7 17 4 44 -10 107 -3 14 -8
38 -11 54 -11 61 -63 132 -127 172 -32 21 -36 28 -31 52 8 37 9 81 1 119 -6
29 -4 33 38 57 70 42 110 105 131 213 30 150 -35 326 -138 376 -29 14 -33 21
-33 54 l0 38 -72 3 c-39 2 -73 -1 -76 -5z m2 -220 c-7 -45 28 -83 77 -83 24 0
64 47 64 75 0 35 17 23 40 -27 10 -23 15 -53 13 -71 -5 -33 -6 -74 -3 -139 1
-36 -20 -91 -40 -103 -6 -4 -10 8 -10 29 0 26 -7 40 -27 56 -52 40 -124 2
-117 -62 5 -40 -16 -32 -39 15 -32 64 -26 249 10 303 18 28 35 31 32 7z m-1
-815 c-6 -30 13 -66 40 -77 51 -21 102 14 102 70 0 21 1 21 19 5 24 -22 43
-103 30 -127 -11 -22 -12 -76 0 -83 21 -13 -15 -136 -39 -136 -6 0 -10 13 -10
29 0 98 -138 103 -144 5 -2 -48 -15 -49 -39 -2 -31 62 -26 253 9 305 16 25 37
31 32 11z"/>
</g>
</svg>
